<mxfile host="app.diagrams.net" modified="2021-08-09T10:54:51.098Z" agent="5.0 (Macintosh; Intel Mac OS X 10_15_5) AppleWebKit/537.36 (KHTML, like Gecko) Chrome/92.0.4515.131 Safari/537.36" etag="M0AMLM5skBZGPNh8WPM1" version="14.9.5" type="github">
  <diagram id="C5RBs43oDa-KdzZeNtuy" name="Page-1">
    <mxGraphModel dx="1006" dy="714" grid="1" gridSize="10" guides="1" tooltips="1" connect="1" arrows="1" fold="1" page="1" pageScale="1" pageWidth="827" pageHeight="1169" math="0" shadow="0">
      <root>
        <mxCell id="WIyWlLk6GJQsqaUBKTNV-0" />
        <mxCell id="WIyWlLk6GJQsqaUBKTNV-1" parent="WIyWlLk6GJQsqaUBKTNV-0" />
        <mxCell id="WgBCIIHCm31Wz0QGrdEG-2" value="" style="edgeStyle=orthogonalEdgeStyle;sketch=1;orthogonalLoop=1;jettySize=auto;html=1;rounded=1;strokeColor=#788AA3;" edge="1" parent="WIyWlLk6GJQsqaUBKTNV-1" source="WgBCIIHCm31Wz0QGrdEG-0" target="WgBCIIHCm31Wz0QGrdEG-1">
          <mxGeometry relative="1" as="geometry" />
        </mxCell>
        <mxCell id="WgBCIIHCm31Wz0QGrdEG-0" value="开始" style="strokeWidth=1;html=1;shape=mxgraph.flowchart.start_1;whiteSpace=wrap;sketch=1;fillColor=#B2C9AB;strokeColor=#788AA3;fontColor=#46495D;" vertex="1" parent="WIyWlLk6GJQsqaUBKTNV-1">
          <mxGeometry x="200" y="40" width="100" height="60" as="geometry" />
        </mxCell>
        <mxCell id="WgBCIIHCm31Wz0QGrdEG-6" value="" style="edgeStyle=orthogonalEdgeStyle;rounded=1;sketch=1;orthogonalLoop=1;jettySize=auto;html=1;fontColor=#46495D;strokeColor=#788AA3;" edge="1" parent="WIyWlLk6GJQsqaUBKTNV-1" source="WgBCIIHCm31Wz0QGrdEG-1" target="WgBCIIHCm31Wz0QGrdEG-5">
          <mxGeometry relative="1" as="geometry" />
        </mxCell>
        <mxCell id="WgBCIIHCm31Wz0QGrdEG-9" value="Yes" style="edgeLabel;html=1;align=center;verticalAlign=middle;resizable=0;points=[];fontColor=#46495D;" vertex="1" connectable="0" parent="WgBCIIHCm31Wz0QGrdEG-6">
          <mxGeometry x="-0.1" y="2" relative="1" as="geometry">
            <mxPoint as="offset" />
          </mxGeometry>
        </mxCell>
        <mxCell id="WgBCIIHCm31Wz0QGrdEG-12" value="" style="edgeStyle=orthogonalEdgeStyle;rounded=1;sketch=1;orthogonalLoop=1;jettySize=auto;html=1;fontColor=#46495D;strokeColor=#788AA3;" edge="1" parent="WIyWlLk6GJQsqaUBKTNV-1" source="WgBCIIHCm31Wz0QGrdEG-1" target="WgBCIIHCm31Wz0QGrdEG-11">
          <mxGeometry relative="1" as="geometry" />
        </mxCell>
        <mxCell id="WgBCIIHCm31Wz0QGrdEG-1" value="是否申请退款" style="rhombus;whiteSpace=wrap;html=1;strokeColor=#788AA3;strokeWidth=1;fillColor=#B2C9AB;sketch=1;fontColor=#46495D;" vertex="1" parent="WIyWlLk6GJQsqaUBKTNV-1">
          <mxGeometry x="210" y="170" width="80" height="80" as="geometry" />
        </mxCell>
        <mxCell id="WgBCIIHCm31Wz0QGrdEG-8" value="" style="edgeStyle=orthogonalEdgeStyle;rounded=1;sketch=1;orthogonalLoop=1;jettySize=auto;html=1;fontColor=#46495D;strokeColor=#788AA3;" edge="1" parent="WIyWlLk6GJQsqaUBKTNV-1" source="WgBCIIHCm31Wz0QGrdEG-5" target="WgBCIIHCm31Wz0QGrdEG-7">
          <mxGeometry relative="1" as="geometry" />
        </mxCell>
        <mxCell id="WgBCIIHCm31Wz0QGrdEG-10" value="Yes" style="edgeLabel;html=1;align=center;verticalAlign=middle;resizable=0;points=[];fontColor=#46495D;" vertex="1" connectable="0" parent="WgBCIIHCm31Wz0QGrdEG-8">
          <mxGeometry x="-0.0444" relative="1" as="geometry">
            <mxPoint as="offset" />
          </mxGeometry>
        </mxCell>
        <mxCell id="WgBCIIHCm31Wz0QGrdEG-25" style="edgeStyle=orthogonalEdgeStyle;rounded=1;sketch=1;orthogonalLoop=1;jettySize=auto;html=1;entryX=1;entryY=0.5;entryDx=0;entryDy=0;fontColor=#46495D;strokeColor=#788AA3;" edge="1" parent="WIyWlLk6GJQsqaUBKTNV-1" source="WgBCIIHCm31Wz0QGrdEG-5" target="WgBCIIHCm31Wz0QGrdEG-13">
          <mxGeometry relative="1" as="geometry">
            <Array as="points">
              <mxPoint x="400" y="370" />
              <mxPoint x="400" y="670" />
            </Array>
          </mxGeometry>
        </mxCell>
        <mxCell id="WgBCIIHCm31Wz0QGrdEG-26" value="No" style="edgeLabel;html=1;align=center;verticalAlign=middle;resizable=0;points=[];fontColor=#46495D;" vertex="1" connectable="0" parent="WgBCIIHCm31Wz0QGrdEG-25">
          <mxGeometry x="-0.796" y="1" relative="1" as="geometry">
            <mxPoint as="offset" />
          </mxGeometry>
        </mxCell>
        <mxCell id="WgBCIIHCm31Wz0QGrdEG-5" value="是否支持部分退款" style="rhombus;whiteSpace=wrap;html=1;strokeColor=#788AA3;strokeWidth=1;fillColor=#B2C9AB;sketch=1;fontColor=#46495D;" vertex="1" parent="WIyWlLk6GJQsqaUBKTNV-1">
          <mxGeometry x="210" y="330" width="80" height="80" as="geometry" />
        </mxCell>
        <mxCell id="WgBCIIHCm31Wz0QGrdEG-14" value="" style="edgeStyle=orthogonalEdgeStyle;rounded=1;sketch=1;orthogonalLoop=1;jettySize=auto;html=1;fontColor=#46495D;strokeColor=#788AA3;" edge="1" parent="WIyWlLk6GJQsqaUBKTNV-1" source="WgBCIIHCm31Wz0QGrdEG-7" target="WgBCIIHCm31Wz0QGrdEG-13">
          <mxGeometry relative="1" as="geometry" />
        </mxCell>
        <mxCell id="WgBCIIHCm31Wz0QGrdEG-7" value="选择退款商品" style="whiteSpace=wrap;html=1;fontColor=#46495D;strokeColor=#788AA3;strokeWidth=1;fillColor=#B2C9AB;sketch=1;" vertex="1" parent="WIyWlLk6GJQsqaUBKTNV-1">
          <mxGeometry x="190" y="500" width="120" height="60" as="geometry" />
        </mxCell>
        <mxCell id="WgBCIIHCm31Wz0QGrdEG-11" value="下单订单流程" style="shape=process;whiteSpace=wrap;html=1;backgroundOutline=1;fontColor=#46495D;strokeColor=#788AA3;strokeWidth=1;fillColor=#B2C9AB;sketch=1;" vertex="1" parent="WIyWlLk6GJQsqaUBKTNV-1">
          <mxGeometry x="350" y="180" width="120" height="60" as="geometry" />
        </mxCell>
        <mxCell id="WgBCIIHCm31Wz0QGrdEG-28" value="" style="edgeStyle=orthogonalEdgeStyle;rounded=1;sketch=1;orthogonalLoop=1;jettySize=auto;html=1;fontColor=#46495D;strokeColor=#788AA3;" edge="1" parent="WIyWlLk6GJQsqaUBKTNV-1" source="WgBCIIHCm31Wz0QGrdEG-13" target="WgBCIIHCm31Wz0QGrdEG-27">
          <mxGeometry relative="1" as="geometry" />
        </mxCell>
        <mxCell id="WgBCIIHCm31Wz0QGrdEG-13" value="填写退款信息" style="whiteSpace=wrap;html=1;fontColor=#46495D;strokeColor=#788AA3;strokeWidth=1;fillColor=#B2C9AB;sketch=1;" vertex="1" parent="WIyWlLk6GJQsqaUBKTNV-1">
          <mxGeometry x="190" y="640" width="120" height="60" as="geometry" />
        </mxCell>
        <mxCell id="WgBCIIHCm31Wz0QGrdEG-18" value="" style="edgeStyle=orthogonalEdgeStyle;rounded=1;sketch=1;orthogonalLoop=1;jettySize=auto;html=1;fontColor=#46495D;strokeColor=#788AA3;" edge="1" parent="WIyWlLk6GJQsqaUBKTNV-1" source="WgBCIIHCm31Wz0QGrdEG-15" target="WgBCIIHCm31Wz0QGrdEG-17">
          <mxGeometry relative="1" as="geometry" />
        </mxCell>
        <mxCell id="WgBCIIHCm31Wz0QGrdEG-15" value="待退款/待退货" style="whiteSpace=wrap;html=1;fontColor=#46495D;strokeWidth=1;fillColor=#B2C9AB;sketch=1;strokeColor=#FFD966;" vertex="1" parent="WIyWlLk6GJQsqaUBKTNV-1">
          <mxGeometry x="190" y="920" width="120" height="60" as="geometry" />
        </mxCell>
        <mxCell id="WgBCIIHCm31Wz0QGrdEG-20" value="" style="edgeStyle=orthogonalEdgeStyle;rounded=1;sketch=1;orthogonalLoop=1;jettySize=auto;html=1;fontColor=#46495D;strokeColor=#788AA3;" edge="1" parent="WIyWlLk6GJQsqaUBKTNV-1" source="WgBCIIHCm31Wz0QGrdEG-17" target="WgBCIIHCm31Wz0QGrdEG-19">
          <mxGeometry relative="1" as="geometry" />
        </mxCell>
        <mxCell id="WgBCIIHCm31Wz0QGrdEG-21" value="Yes" style="edgeLabel;html=1;align=center;verticalAlign=middle;resizable=0;points=[];fontColor=#46495D;" vertex="1" connectable="0" parent="WgBCIIHCm31Wz0QGrdEG-20">
          <mxGeometry x="-0.1333" relative="1" as="geometry">
            <mxPoint as="offset" />
          </mxGeometry>
        </mxCell>
        <mxCell id="WgBCIIHCm31Wz0QGrdEG-23" value="" style="edgeStyle=orthogonalEdgeStyle;rounded=1;sketch=1;orthogonalLoop=1;jettySize=auto;html=1;fontColor=#46495D;strokeColor=#788AA3;" edge="1" parent="WIyWlLk6GJQsqaUBKTNV-1" source="WgBCIIHCm31Wz0QGrdEG-17" target="WgBCIIHCm31Wz0QGrdEG-22">
          <mxGeometry relative="1" as="geometry" />
        </mxCell>
        <mxCell id="WgBCIIHCm31Wz0QGrdEG-24" value="No" style="edgeLabel;html=1;align=center;verticalAlign=middle;resizable=0;points=[];fontColor=#46495D;" vertex="1" connectable="0" parent="WgBCIIHCm31Wz0QGrdEG-23">
          <mxGeometry x="-0.3333" y="-1" relative="1" as="geometry">
            <mxPoint as="offset" />
          </mxGeometry>
        </mxCell>
        <mxCell id="WgBCIIHCm31Wz0QGrdEG-17" value="是否允许退款" style="rhombus;whiteSpace=wrap;html=1;fontColor=#46495D;strokeColor=#788AA3;strokeWidth=1;fillColor=#B2C9AB;sketch=1;" vertex="1" parent="WIyWlLk6GJQsqaUBKTNV-1">
          <mxGeometry x="210" y="1050" width="80" height="80" as="geometry" />
        </mxCell>
        <mxCell id="WgBCIIHCm31Wz0QGrdEG-31" value="" style="edgeStyle=orthogonalEdgeStyle;rounded=1;sketch=1;orthogonalLoop=1;jettySize=auto;html=1;fontColor=#46495D;strokeColor=#788AA3;" edge="1" parent="WIyWlLk6GJQsqaUBKTNV-1" source="WgBCIIHCm31Wz0QGrdEG-19" target="WgBCIIHCm31Wz0QGrdEG-30">
          <mxGeometry relative="1" as="geometry" />
        </mxCell>
        <mxCell id="WgBCIIHCm31Wz0QGrdEG-19" value="退款完成" style="whiteSpace=wrap;html=1;fontColor=#46495D;strokeWidth=1;fillColor=#B2C9AB;sketch=1;strokeColor=#FFD966;" vertex="1" parent="WIyWlLk6GJQsqaUBKTNV-1">
          <mxGeometry x="190" y="1220" width="120" height="60" as="geometry" />
        </mxCell>
        <mxCell id="WgBCIIHCm31Wz0QGrdEG-32" style="edgeStyle=orthogonalEdgeStyle;rounded=1;sketch=1;orthogonalLoop=1;jettySize=auto;html=1;entryX=0.5;entryY=0;entryDx=0;entryDy=0;fontColor=#46495D;strokeColor=#788AA3;" edge="1" parent="WIyWlLk6GJQsqaUBKTNV-1" source="WgBCIIHCm31Wz0QGrdEG-22" target="WgBCIIHCm31Wz0QGrdEG-30">
          <mxGeometry relative="1" as="geometry">
            <Array as="points">
              <mxPoint x="414" y="1300" />
              <mxPoint x="250" y="1300" />
            </Array>
          </mxGeometry>
        </mxCell>
        <mxCell id="WgBCIIHCm31Wz0QGrdEG-22" value="拒绝退款" style="whiteSpace=wrap;html=1;fontColor=#46495D;strokeWidth=1;fillColor=#B2C9AB;sketch=1;strokeColor=#FFD966;" vertex="1" parent="WIyWlLk6GJQsqaUBKTNV-1">
          <mxGeometry x="354" y="1220" width="120" height="60" as="geometry" />
        </mxCell>
        <mxCell id="WgBCIIHCm31Wz0QGrdEG-29" style="edgeStyle=orthogonalEdgeStyle;rounded=1;sketch=1;orthogonalLoop=1;jettySize=auto;html=1;fontColor=#46495D;strokeColor=#788AA3;" edge="1" parent="WIyWlLk6GJQsqaUBKTNV-1" source="WgBCIIHCm31Wz0QGrdEG-27" target="WgBCIIHCm31Wz0QGrdEG-15">
          <mxGeometry relative="1" as="geometry" />
        </mxCell>
        <mxCell id="WgBCIIHCm31Wz0QGrdEG-27" value="申请退款" style="whiteSpace=wrap;html=1;fontColor=#46495D;strokeColor=#788AA3;strokeWidth=1;fillColor=#B2C9AB;sketch=1;" vertex="1" parent="WIyWlLk6GJQsqaUBKTNV-1">
          <mxGeometry x="190" y="780" width="120" height="60" as="geometry" />
        </mxCell>
        <mxCell id="WgBCIIHCm31Wz0QGrdEG-30" value="结束" style="ellipse;whiteSpace=wrap;html=1;fontColor=#46495D;strokeColor=#788AA3;strokeWidth=1;fillColor=#B2C9AB;sketch=1;" vertex="1" parent="WIyWlLk6GJQsqaUBKTNV-1">
          <mxGeometry x="190" y="1360" width="120" height="60" as="geometry" />
        </mxCell>
      </root>
    </mxGraphModel>
  </diagram>
</mxfile>
